<?xml version="1.0" encoding="UTF-8"?>
<!DOCTYPE svg PUBLIC "-//W3C//DTD SVG 1.1//EN" "http://www.w3.org/Graphics/SVG/1.1/DTD/svg11.dtd">
<!-- Creator: CorelDRAW -->
<svg xmlns="http://www.w3.org/2000/svg" xml:space="preserve" width="2048px" height="2048px" style="shape-rendering:geometricPrecision; text-rendering:geometricPrecision; image-rendering:optimizeQuality; fill-rule:evenodd; clip-rule:evenodd"
viewBox="0 0 2048 2048"
 xmlns:xlink="http://www.w3.org/1999/xlink">
 <defs>
  <style type="text/css">
   <![CDATA[
    .fil2 {fill:none}
    .fil1 {fill:#424242}
    .fil0 {fill:#424242;fill-rule:nonzero}
   ]]>
  </style>
 </defs>
 <g id="Layer_x0020_1">
  <metadata id="CorelCorpID_0Corel-Layer"/>
  <g id="_337030688">
   <path id="_337031696" class="fil0" d="M398.117 510.232c42.3189,0 79.3902,25.8591 105.116,67.6607 22.8626,37.1516 37.0028,87.8481 37.0028,143.282 0,55.4327 -14.1402,106.129 -37.0028,143.281 -25.7256,41.8016 -62.7969,67.6607 -105.116,67.6607 -42.3189,0 -79.3914,-25.8567 -105.116,-67.6607 -22.8614,-37.1492 -37.0028,-87.8469 -37.0028,-143.281 0,-55.4339 14.1402,-106.13 37.0028,-143.282 25.7244,-41.804 62.7969,-67.6607 105.116,-67.6607z"/>
   <path id="_337030904" class="fil0" d="M430.118 900.115c0,-17.6728 -14.328,-32.0008 -32.0008,-32.0008 -17.6728,0 -32.0008,14.328 -32.0008,32.0008l0 605.651c0,17.6728 14.328,32.0008 32.0008,32.0008 17.6728,0 32.0008,-14.328 32.0008,-32.0008l0 -605.651z"/>
   <path id="_337030640" class="fil1" d="M1792 1024c0,-163.472 -66.2634,-311.473 -173.397,-418.605 -107.132,-107.133 -255.134,-173.397 -418.605,-173.397 -163.472,0 -311.473,66.2634 -418.605,173.397 -107.133,107.132 -173.397,255.132 -173.397,418.605 0,163.473 66.2634,311.473 173.397,418.605 107.132,107.133 255.134,173.397 418.605,173.397 163.472,0 311.473,-66.2634 418.605,-173.397 107.133,-107.132 173.397,-255.134 173.397,-418.605zm-592.002 -348.523c96.2375,0 183.369,39.0118 246.441,102.083 63.0709,63.0721 102.083,150.203 102.083,246.441 0,96.2375 -39.0118,183.369 -102.083,246.441 -63.0721,63.0709 -150.203,102.083 -246.441,102.083 -96.2375,0 -183.369,-39.0118 -246.441,-102.083 -63.0709,-63.0721 -102.083,-150.203 -102.083,-246.441 0,-96.2375 39.0118,-183.369 102.083,-246.441 63.0721,-63.0709 150.203,-102.083 246.441,-102.083z"/>
   <path id="_337030424" class="fil1" d="M1484.52 1024c0,-78.5717 -31.8461,-149.704 -83.3316,-201.19 -51.4867,-51.4855 -122.619,-83.3316 -201.19,-83.3316 -78.5717,0 -149.704,31.8461 -201.19,83.3316 -51.4855,51.4867 -83.3316,122.619 -83.3316,201.19 0,78.5717 31.8461,149.704 83.3316,201.19 51.4867,51.4855 122.619,83.3316 201.19,83.3316 78.5717,0 149.704,-31.8461 201.19,-83.3316 51.4855,-51.4867 83.3316,-122.619 83.3316,-201.19z"/>
  </g>
 </g>
 <rect class="fil2" width="2048" height="2048"/>
</svg>
